<svg xmlns="http://www.w3.org/2000/svg" width="70" height="70" viewBox="0 0 70 70">
  <defs>
    <style>
      .cls-1 {
        fill: #fff;
        stroke: #707070;
      }

      .cls-2 {
        stroke: none;
      }

      .cls-3 {
        fill: none;
      }
    </style>
  </defs>
  <g id="Group_56" data-name="Group 56" transform="translate(-1144 -887)">
    <g id="Ellipse_2" data-name="Ellipse 2" class="cls-1" transform="translate(1144 887)">
      <circle class="cls-2" cx="35" cy="35" r="35"/>
      <circle class="cls-3" cx="35" cy="35" r="34.5"/>
    </g>
    <path id="Path_9" data-name="Path 9" d="M30.19,6.067,14.244,22.013a.621.621,0,0,0-.182.442v2.092a.625.625,0,0,0,.624.624h2.076a.639.639,0,0,0,.45-.182L33.166,9.043a.624.624,0,0,0,0-.884L31.075,6.067A.624.624,0,0,0,30.19,6.067Z" transform="translate(1160.607 902.304)"/>
    <path id="Path_10" data-name="Path 10" d="M33.873,4.875,32.736,3.738l-.016-.016a1.4,1.4,0,0,0-.908-.347,1.368,1.368,0,0,0-.916.355l-.892.9a.319.319,0,0,0,0,.442l.821.821,1.713,1.713a.315.315,0,0,0,.45,0l.892-.892a1.346,1.346,0,0,0,.347-.916A1.428,1.428,0,0,0,33.873,4.875Z" transform="translate(1162.553 901.996)"/>
    <path id="Path_11" data-name="Path 11" d="M19.459,25.939a1.268,1.268,0,0,1-.892.371H15.3a1.267,1.267,0,0,1-1.263-1.263V21.771a1.268,1.268,0,0,1,.371-.892l.063-.063L26.122,9.164a.315.315,0,0,0-.221-.537H6.884A4.636,4.636,0,0,0,2.25,13.261V30.944a4.636,4.636,0,0,0,4.634,4.634H27.093a4.636,4.636,0,0,0,4.634-4.634v-16.5a.313.313,0,0,0-.537-.221L19.523,25.876Z" transform="translate(1159.157 902.641)"/>
  </g>
</svg>
