<svg xmlns="http://www.w3.org/2000/svg" width="70" height="70" viewBox="0 0 70 70">
  <defs>
    <style>
      .cls-1 {
        fill: #fff;
        stroke: #707070;
      }

      .cls-2 {
        stroke: none;
      }

      .cls-3 {
        fill: none;
      }
    </style>
  </defs>
  <g id="Group_57" data-name="Group 57" transform="translate(-696 -887)">
    <g id="Ellipse_2" data-name="Ellipse 2" class="cls-1" transform="translate(696 887)">
      <circle class="cls-2" cx="35" cy="35" r="35"/>
      <circle class="cls-3" cx="35" cy="35" r="34.5"/>
    </g>
    <path id="Icon_awesome-blog" data-name="Icon awesome-blog" d="M11.866,15.628a1.656,1.656,0,0,0-1.943,1.64V20.74a1.656,1.656,0,0,0,1.151,1.516,3.307,3.307,0,1,1-4.458,3.1V8.269A1.65,1.65,0,0,0,4.961,6.615H1.654A1.65,1.65,0,0,0,0,8.269V25.357a9.925,9.925,0,1,0,11.866-9.729ZM14.4,0A1.109,1.109,0,0,0,13.23,1.1V3.28a1.091,1.091,0,0,0,1.034,1.1,17.7,17.7,0,0,1,16.6,16.641,1.1,1.1,0,0,0,1.1,1.034H34.17a1.109,1.109,0,0,0,1.1-1.171A22.1,22.1,0,0,0,14.4,0Zm.021,6.615A1.112,1.112,0,0,0,13.23,7.724V9.936a1.1,1.1,0,0,0,1.02,1.1,11.006,11.006,0,0,1,9.984,10.005,1.107,1.107,0,0,0,1.1,1.013h2.219a1.116,1.116,0,0,0,1.109-1.192A15.5,15.5,0,0,0,14.422,6.615Z" transform="translate(716.363 904.363)"/>
  </g>
</svg>
