<svg xmlns="http://www.w3.org/2000/svg" width="70" height="70" viewBox="0 0 70 70">
  <defs>
    <style>
      .cls-1 {
        fill: #fff;
        stroke: #707070;
      }

      .cls-2 {
        stroke: none;
      }

      .cls-3 {
        fill: none;
      }
    </style>
  </defs>
  <g id="Group_58" data-name="Group 58" transform="translate(-699 -554)">
    <g id="Ellipse_2" data-name="Ellipse 2" class="cls-1" transform="translate(699 554)">
      <circle class="cls-2" cx="35" cy="35" r="35"/>
      <circle class="cls-3" cx="35" cy="35" r="34.5"/>
    </g>
    <path id="Icon_awesome-code" data-name="Icon awesome-code" d="M19.831,34.969l-4.337-1.21a.817.817,0,0,1-.583-1.019L24.616.595A.86.86,0,0,1,25.676.034l4.337,1.21A.818.818,0,0,1,30.6,2.263L20.89,34.408a.857.857,0,0,1-1.059.561ZM11.725,27.3l3.093-3.172a.8.8,0,0,0-.057-1.176L8.319,17.5l6.442-5.449a.793.793,0,0,0,.057-1.176L11.725,7.7a.878.878,0,0,0-1.209-.034L.27,16.9a.794.794,0,0,0,0,1.2l10.246,9.236A.872.872,0,0,0,11.725,27.3Zm23.265.041L45.236,18.1a.794.794,0,0,0,0-1.2L34.99,7.664a.886.886,0,0,0-1.209.034L30.688,10.87a.8.8,0,0,0,.057,1.176L37.187,17.5,30.745,22.95a.793.793,0,0,0-.057,1.176L33.781,27.3A.879.879,0,0,0,34.99,27.339Z" transform="translate(710.996 570.999)"/>
  </g>
</svg>
