<svg xmlns="http://www.w3.org/2000/svg" xmlns:xlink="http://www.w3.org/1999/xlink" width="73" height="73" viewBox="0 0 73 73">
  <defs>
    <filter id="Ellipse_1" x="0" y="0" width="73" height="73" filterUnits="userSpaceOnUse">
      <feOffset dy="3" input="SourceAlpha"/>
      <feGaussianBlur stdDeviation="3" result="blur"/>
      <feFlood flood-opacity="0.361"/>
      <feComposite operator="in" in2="blur"/>
      <feComposite in="SourceGraphic"/>
    </filter>
  </defs>
  <g id="Group_11" data-name="Group 11" transform="translate(-335 -470)">
    <g transform="matrix(1, 0, 0, 1, 335, 470)" filter="url(#Ellipse_1)">
      <circle id="Ellipse_1-2" data-name="Ellipse 1" cx="27.5" cy="27.5" r="27.5" transform="translate(9 6)" fill="#3e9dd8"/>
    </g>
    <g id="Group_10" data-name="Group 10" transform="translate(354.205 492.62)">
      <path id="Path_4" data-name="Path 4" d="M37.683,18.953H5.943c-.794,0-1.443-.467-1.443-1.039h0c0-.571.649-1.039,1.443-1.039h31.74c.794,0,1.443.467,1.443,1.039h0C39.125,18.485,38.476,18.953,37.683,18.953Z" transform="translate(-4.5 -7.18)" fill="#fff"/>
      <path id="Path_7" data-name="Path 7" d="M37.683,18.953H5.943c-.794,0-1.443-.467-1.443-1.039h0c0-.571.649-1.039,1.443-1.039h31.74c.794,0,1.443.467,1.443,1.039h0C39.125,18.485,38.476,18.953,37.683,18.953Z" transform="translate(-4.5 2.515)" fill="#fff"/>
      <path id="Path_6" data-name="Path 6" d="M37.683,18.953H5.943c-.794,0-1.443-.467-1.443-1.039h0c0-.571.649-1.039,1.443-1.039h31.74c.794,0,1.443.467,1.443,1.039h0C39.125,18.485,38.476,18.953,37.683,18.953Z" transform="translate(-4.5 -16.875)" fill="#fff"/>
    </g>
  </g>
</svg>
