<svg xmlns="http://www.w3.org/2000/svg" width="27.976" height="27.977" viewBox="0 0 27.976 27.977">
  <path id="Icon_ionic-ios-send" data-name="Icon ionic-ios-send" d="M30.613,4.563,4.837,15.8a.591.591,0,0,0,.021,1.074l6.972,3.939a1.124,1.124,0,0,0,1.285-.126L26.863,8.833c.091-.077.309-.225.393-.14s-.049.3-.126.393l-11.894,13.4a1.121,1.121,0,0,0-.112,1.341l4.557,7.31a.593.593,0,0,0,1.067-.014L31.406,5.343A.591.591,0,0,0,30.613,4.563Z" transform="translate(-4.002 -3.986)" fill="none" stroke="#f5f6f7" stroke-width="1"/>
</svg>
