<svg xmlns="http://www.w3.org/2000/svg" width="38.957" height="36.145" viewBox="0 0 38.957 36.145">
  <path id="Icon_metro-suitcase" data-name="Icon metro-suitcase" d="M39.644,40.929H7.31A2.812,2.812,0,0,1,4.5,38.118V21.248a71.585,71.585,0,0,0,14.058,5.32v1.709a1.4,1.4,0,0,0,1.406,1.406h7.029A1.405,1.405,0,0,0,28.4,28.277V26.568a71.627,71.627,0,0,0,14.058-5.32v16.87A2.813,2.813,0,0,1,39.644,40.929ZM25.586,24.06a1.405,1.405,0,0,1,1.406,1.406v1.406a1.405,1.405,0,0,1-1.406,1.406H21.368a1.4,1.4,0,0,1-1.406-1.406V25.465a1.4,1.4,0,0,1,1.406-1.406Zm2.812,0a1.405,1.405,0,0,0-1.406-1.406H19.963a1.4,1.4,0,0,0-1.406,1.406v1.26A70.417,70.417,0,0,1,4.5,19.842V14.219A2.812,2.812,0,0,1,7.31,11.407h8.435V8.6a2.813,2.813,0,0,1,2.812-2.812H28.4A2.813,2.813,0,0,1,31.209,8.6v2.812h8.435a2.813,2.813,0,0,1,2.812,2.812v5.623A70.458,70.458,0,0,1,28.4,25.319V24.06ZM28.4,10A1.405,1.405,0,0,0,26.992,8.6H19.963A1.4,1.4,0,0,0,18.557,10v1.406H28.4Z" transform="translate(-3.999 -5.284)" fill="none" stroke="#3e9dd8" stroke-width="1"/>
</svg>
